Coordinates
version=1
nRows=21
nColumns=12
inDegrees=yes

Units are S.I. units (second, meters, Newtons, ...)
Angles are in degrees

endheader
time	SC_y	SC_z	SC_x	AC_y	AC_z	AC_x	GH_y	GH_z	GH_yy	EL_x	PS_y
       0.0              -14.52         -3.207          65.45          44.18         -4.678         -10.52         -140.6         -9.427          130.0          65.78          75.56
   0.02695              -14.52         -3.202          65.44          44.18         -4.679         -10.52         -140.6         -9.428          130.0          65.79          75.55
   0.05391              -14.53         -3.197          65.44          44.18          -4.68         -10.52         -140.5          -9.43          130.0          65.79          75.54
   0.08086              -14.54         -3.192          65.43          44.17         -4.681         -10.52         -140.5         -9.431          130.0          65.79          75.53
    0.1078              -14.54         -3.187          65.43          44.17         -4.682         -10.52         -140.4         -9.433          130.0           65.8          75.53
    0.1348              -14.55         -3.181          65.42          44.17         -4.684         -10.52         -140.4         -9.435          130.1           65.8          75.52
    0.1617              -14.56         -3.175          65.42          44.17         -4.685         -10.52         -140.3         -9.437          130.1           65.8          75.51
    0.1887              -14.57         -3.168          65.41          44.16         -4.687         -10.52         -140.3         -9.439          130.1          65.81           75.5
    0.2156              -14.57         -3.161           65.4          44.16         -4.688         -10.52         -140.2         -9.441          130.1          65.81          75.49
    0.2426              -14.58         -3.154          65.39          44.16          -4.69         -10.52         -140.1         -9.444          130.1          65.82          75.48
    0.2695              -14.59         -3.145          65.39          44.16         -4.692         -10.52         -140.1         -9.446          130.1          65.82          75.47
    0.2965               -14.6         -3.137          65.38          44.15         -4.694         -10.52         -140.0         -9.449          130.1          65.83          75.46
    0.3235              -14.61         -3.127          65.37          44.15         -4.696         -10.53         -139.9         -9.452          130.1          65.84          75.44
    0.3504              -14.63         -3.117          65.36          44.14         -4.699         -10.53         -139.8         -9.455          130.1          65.84          75.43
    0.3774              -14.64         -3.106          65.34          44.14         -4.701         -10.53         -139.7         -9.459          130.1          65.85          75.41
    0.4043              -14.66         -3.094          65.33          44.14         -4.704         -10.53         -139.6         -9.462          130.1          65.86          75.39
    0.4313              -14.67         -3.081          65.32          44.13         -4.707         -10.53         -139.5         -9.467          130.1          65.87          75.38
    0.4582              -14.69         -3.067           65.3          44.13         -4.711         -10.53         -139.4         -9.471          130.1          65.87          75.36
    0.4852              -14.71         -3.051          65.29          44.12         -4.714         -10.53         -139.3         -9.476          130.1          65.88          75.33
    0.5121              -14.73         -3.034          65.27          44.11         -4.718         -10.53         -139.1         -9.481          130.2           65.9          75.31
    0.5391              -14.75         -3.016          65.25          44.11         -4.723         -10.53         -139.0         -9.487          130.2          65.91          75.28
